<mxfile host="app.diagrams.net" agent="Mozilla/5.0 (Windows NT 10.0; Win64; x64; rv:132.0) Gecko/20100101 Firefox/132.0" version="24.9.3">
  <diagram name="Side-1" id="fpGBUsPhQ4VIDHfy4yD3">
    <mxGraphModel dx="297" dy="588" grid="1" gridSize="10" guides="1" tooltips="1" connect="1" arrows="1" fold="1" page="1" pageScale="1" pageWidth="10" pageHeight="10" math="0" shadow="0">
      <root>
        <mxCell id="0" />
        <mxCell id="1" parent="0" />
        <mxCell id="XbjgICC_Nx1yd-tupd8w-1" value="" style="edgeStyle=orthogonalEdgeStyle;rounded=0;orthogonalLoop=1;jettySize=auto;html=1;" parent="1" source="XbjgICC_Nx1yd-tupd8w-2" edge="1">
          <mxGeometry relative="1" as="geometry">
            <mxPoint x="395.0434782608695" y="240" as="targetPoint" />
          </mxGeometry>
        </mxCell>
        <mxCell id="XbjgICC_Nx1yd-tupd8w-2" value="ID 6 Start&lt;div&gt;&lt;br&gt;&lt;/div&gt;" style="ellipse;whiteSpace=wrap;html=1;" parent="1" vertex="1">
          <mxGeometry x="335" y="130" width="120" height="80" as="geometry" />
        </mxCell>
        <mxCell id="XbjgICC_Nx1yd-tupd8w-4" value="" style="edgeStyle=orthogonalEdgeStyle;rounded=0;orthogonalLoop=1;jettySize=auto;html=1;" parent="1" target="XbjgICC_Nx1yd-tupd8w-14" edge="1">
          <mxGeometry relative="1" as="geometry">
            <mxPoint x="395" y="300" as="sourcePoint" />
          </mxGeometry>
        </mxCell>
        <mxCell id="bY3ii1kQU7Txrz15E31Q-7" style="edgeStyle=orthogonalEdgeStyle;rounded=0;orthogonalLoop=1;jettySize=auto;html=1;exitX=0;exitY=0.5;exitDx=0;exitDy=0;entryX=0;entryY=0.25;entryDx=0;entryDy=0;" edge="1" parent="1" source="XbjgICC_Nx1yd-tupd8w-11" target="XbjgICC_Nx1yd-tupd8w-14">
          <mxGeometry relative="1" as="geometry">
            <Array as="points">
              <mxPoint x="200" y="573" />
              <mxPoint x="200" y="255" />
            </Array>
          </mxGeometry>
        </mxCell>
        <mxCell id="XbjgICC_Nx1yd-tupd8w-11" value="Tænd for bremselys" style="rounded=0;whiteSpace=wrap;html=1;" parent="1" vertex="1">
          <mxGeometry x="355" y="545" width="80" height="55" as="geometry" />
        </mxCell>
        <mxCell id="XbjgICC_Nx1yd-tupd8w-18" value="" style="edgeStyle=orthogonalEdgeStyle;rounded=0;orthogonalLoop=1;jettySize=auto;html=1;" parent="1" source="XbjgICC_Nx1yd-tupd8w-14" target="XbjgICC_Nx1yd-tupd8w-17" edge="1">
          <mxGeometry relative="1" as="geometry" />
        </mxCell>
        <mxCell id="XbjgICC_Nx1yd-tupd8w-14" value="&lt;div&gt;GY-512:&lt;/div&gt;&lt;div&gt;Mål accelerometer-værdi&lt;br&gt;&lt;/div&gt;" style="rounded=0;whiteSpace=wrap;html=1;" parent="1" vertex="1">
          <mxGeometry x="310" y="240" width="170" height="60" as="geometry" />
        </mxCell>
        <mxCell id="XbjgICC_Nx1yd-tupd8w-21" style="edgeStyle=orthogonalEdgeStyle;rounded=0;orthogonalLoop=1;jettySize=auto;html=1;entryX=0.5;entryY=0;entryDx=0;entryDy=0;" parent="1" source="XbjgICC_Nx1yd-tupd8w-17" target="XbjgICC_Nx1yd-tupd8w-11" edge="1">
          <mxGeometry relative="1" as="geometry">
            <Array as="points">
              <mxPoint x="480" y="425" />
              <mxPoint x="480" y="520" />
              <mxPoint x="395" y="520" />
            </Array>
          </mxGeometry>
        </mxCell>
        <mxCell id="XbjgICC_Nx1yd-tupd8w-22" value="Ja" style="edgeLabel;html=1;align=center;verticalAlign=middle;resizable=0;points=[];" parent="XbjgICC_Nx1yd-tupd8w-21" vertex="1" connectable="0">
          <mxGeometry x="-0.8356" y="8" relative="1" as="geometry">
            <mxPoint x="-8" y="22" as="offset" />
          </mxGeometry>
        </mxCell>
        <mxCell id="XbjgICC_Nx1yd-tupd8w-17" value="Bliver der bremset?" style="rhombus;whiteSpace=wrap;html=1;" parent="1" vertex="1">
          <mxGeometry x="325" y="355" width="140" height="140" as="geometry" />
        </mxCell>
        <mxCell id="bY3ii1kQU7Txrz15E31Q-3" style="edgeStyle=orthogonalEdgeStyle;rounded=0;orthogonalLoop=1;jettySize=auto;html=1;exitX=0.5;exitY=0;exitDx=0;exitDy=0;exitPerimeter=0;entryX=0;entryY=0.75;entryDx=0;entryDy=0;" edge="1" parent="1" source="bY3ii1kQU7Txrz15E31Q-1" target="XbjgICC_Nx1yd-tupd8w-14">
          <mxGeometry relative="1" as="geometry" />
        </mxCell>
        <mxCell id="bY3ii1kQU7Txrz15E31Q-1" value="Vent 500 millisekunder" style="strokeWidth=2;html=1;shape=mxgraph.flowchart.delay;whiteSpace=wrap;" vertex="1" parent="1">
          <mxGeometry x="235" y="325" width="100" height="60" as="geometry" />
        </mxCell>
        <mxCell id="bY3ii1kQU7Txrz15E31Q-4" style="edgeStyle=orthogonalEdgeStyle;rounded=0;orthogonalLoop=1;jettySize=auto;html=1;exitX=0;exitY=0.5;exitDx=0;exitDy=0;entryX=0.5;entryY=1;entryDx=0;entryDy=0;entryPerimeter=0;" edge="1" parent="1" source="XbjgICC_Nx1yd-tupd8w-17" target="bY3ii1kQU7Txrz15E31Q-1">
          <mxGeometry relative="1" as="geometry" />
        </mxCell>
        <mxCell id="bY3ii1kQU7Txrz15E31Q-5" value="&lt;div&gt;Nej&lt;/div&gt;" style="edgeLabel;html=1;align=center;verticalAlign=middle;resizable=0;points=[];" vertex="1" connectable="0" parent="bY3ii1kQU7Txrz15E31Q-4">
          <mxGeometry x="-0.575" y="4" relative="1" as="geometry">
            <mxPoint x="-3" y="-4" as="offset" />
          </mxGeometry>
        </mxCell>
        <mxCell id="bY3ii1kQU7Txrz15E31Q-6" value="&lt;div&gt;Er der negativ acceleration?&lt;/div&gt;&lt;div&gt;Grænseværdi er valgfri&lt;/div&gt;&lt;div&gt;at bestemme.&lt;br&gt;&lt;/div&gt;" style="strokeWidth=2;html=1;shape=mxgraph.flowchart.annotation_2;align=left;labelPosition=right;pointerEvents=1;" vertex="1" parent="1">
          <mxGeometry x="485" y="375" width="50" height="100" as="geometry" />
        </mxCell>
      </root>
    </mxGraphModel>
  </diagram>
</mxfile>
